# xmcd
#
# Track frame offsets:
#	150
#	16986
#	32763
#	47241
#	61599
#	78720
#	93779
#	105832
#	120729
#	135587
#	150302
#	165285
#	180722
#	196991
#	212833
#	224962
#	241453
#	257135
#
# Disc length: 3646 seconds
#
# Revision: 1
# Processed by: cddbd v1.5.2PL0 Copyright (c) Steve Scherf et al.
# Submitted via: audiograbber 1.83.01
#
DISCID=ef0e3c12
DTITLE=Hansi Hinterseer - Amore Mio
DYEAR=2000
DGENRE=Ballad
TTITLE0=Hansi Hinterseer - Für jedes Herz das einsam ist
TTITLE1=Hansi Hinterseer - Mich küsst ein Sonnenstrahl
TTITLE2=Hansi Hinterseer - Wenn ich träume
TTITLE3=Hansi Hinterseer - Verlier die Hoffnung nie
TTITLE4=Hansi Hinterseer - Amore Mio
TTITLE5=Hansi Hinterseer - Was wär mein Leben ohne deine Liebe
TTITLE6=Hansi Hinterseer - Ski Twist
TTITLE7=Hansi Hinterseer - Lebwohl Maria
TTITLE8=Hansi Hinterseer - Heut geht es rund
TTITLE9=Hansi Hinterseer - Eine Nacht in deinen Armen
TTITLE10=Hansi Hinterseer - Trau dich doch
TTITLE11=Hansi Hinterseer - Ich schlaf Herz an Herz mit dir ein
TTITLE12=Hansi Hinterseer - Ich will dich für immer
TTITLE13=Hansi Hinterseer - Weil ich dich brauch zum Leben
TTITLE14=Hansi Hinterseer and Andre Schiller - EXTRA - Arore Mio Schnell
TTITLE15=Andre Schiller - Moonlight Shadow - Instrumental
TTITLE16=Andre Schiller - Moonlight Shadow - Power Version
TTITLE17=Andre Schiller - Moonlight Shadow - Karaoke Version
EXTD=
EXTT0=
EXTT1=
EXTT2=
EXTT3=
EXTT4=
EXTT5=
EXTT6=
EXTT7=
EXTT8=
EXTT9=
EXTT10=
EXTT11=
EXTT12=
EXTT13=
EXTT14=
EXTT15=
EXTT16=
EXTT17=
PLAYORDER=
